# Blender v2.74 (sub 0) OBJ File: ''
# www.blender.org
mtllib wheel.mtl
o ShapeIndexedFaceSet.002_ShapeIndexedFaceSet.003_Shape.002
v 0.025000 -0.000000 -0.002000
v 0.025000 -0.000000 -0.008000
v 0.023776 0.007725 -0.008000
v 0.023776 0.007725 -0.002000
v 0.020225 0.014695 -0.008000
v 0.020225 0.014695 -0.002000
v 0.014695 0.020225 -0.008000
v 0.014695 0.020225 -0.002000
v 0.007725 0.023776 -0.008000
v 0.007725 0.023776 -0.002000
v 0.000000 0.025000 -0.008000
v 0.000000 0.025000 -0.002000
v -0.007725 0.023776 -0.008000
v -0.007725 0.023776 -0.002000
v -0.014695 0.020225 -0.008000
v -0.014695 0.020225 -0.002000
v -0.020225 0.014695 -0.008000
v -0.020225 0.014695 -0.002000
v -0.023776 0.007725 -0.008000
v -0.023776 0.007725 -0.002000
v -0.025000 -0.000000 -0.008000
v -0.025000 -0.000000 -0.002000
v -0.023776 -0.007725 -0.008000
v -0.023776 -0.007725 -0.002000
v -0.020225 -0.014695 -0.008000
v -0.020225 -0.014695 -0.002000
v -0.014695 -0.020225 -0.008000
v -0.014695 -0.020225 -0.002000
v -0.007725 -0.023776 -0.008000
v -0.007725 -0.023776 -0.002000
v 0.000000 -0.025000 -0.008000
v 0.000000 -0.025000 -0.002000
v 0.007725 -0.023776 -0.008000
v 0.007725 -0.023776 -0.002000
v 0.014695 -0.020225 -0.008000
v 0.014695 -0.020225 -0.002000
v 0.020225 -0.014695 -0.008000
v 0.020225 -0.014695 -0.002000
v 0.023776 -0.007725 -0.008000
v 0.023776 -0.007725 -0.002000
v 0.023776 -0.007725 -0.008000
v 0.025000 -0.000000 -0.008000
v 0.025000 -0.000000 -0.008000
v 0.025000 -0.000000 -0.002000
v 0.023776 -0.007725 -0.002000
v 0.023776 -0.007725 -0.002000
vn 0.987700 0.156500 -0.000000
vn 0.891000 0.454000 0.000000
vn 0.707100 0.707100 0.000000
vn 0.454000 0.891000 0.000000
vn 0.156500 0.987700 0.000000
vn -0.156500 0.987700 0.000000
vn -0.454000 0.891000 0.000000
vn -0.707100 0.707100 0.000000
vn -0.891000 0.454000 0.000000
vn -0.987700 0.156500 -0.000000
vn -0.987700 -0.156500 0.000000
vn -0.891000 -0.454000 0.000000
vn -0.707100 -0.707100 0.000000
vn -0.454000 -0.891000 0.000000
vn -0.156500 -0.987700 0.000000
vn 0.156500 -0.987700 0.000000
vn 0.454000 -0.891000 0.000000
vn 0.707100 -0.707100 0.000000
vn 0.891000 -0.454000 0.000000
vn 0.987700 -0.156500 0.000000
g ShapeIndexedFaceSet.002_ShapeIndexedFaceSet.003_Shape.002_ShapeIndexedFaceSet.002_ShapeIndexedFaceSet.003_Shape.002_Shape.002
usemtl Shape.002
s 1
f 1//1 2//1 3//1
f 3//1 4//1 1//1
s 2
f 4//2 3//2 5//2
f 5//2 6//2 4//2
s 3
f 6//3 5//3 7//3
f 7//3 8//3 6//3
s 4
f 8//4 7//4 9//4
f 9//4 10//4 8//4
s 5
f 10//5 9//5 11//5
f 11//5 12//5 10//5
s 6
f 12//6 11//6 13//6
f 13//6 14//6 12//6
s 7
f 14//7 13//7 15//7
f 15//7 16//7 14//7
s 8
f 16//8 15//8 17//8
f 17//8 18//8 16//8
s 9
f 18//9 17//9 19//9
f 19//9 20//9 18//9
s 10
f 20//10 19//10 21//10
f 21//10 22//10 20//10
s 11
f 22//11 21//11 23//11
f 23//11 24//11 22//11
s 12
f 24//12 23//12 25//12
f 25//12 26//12 24//12
s 13
f 26//13 25//13 27//13
f 27//13 28//13 26//13
s 14
f 28//14 27//14 29//14
f 29//14 30//14 28//14
s 15
f 30//15 29//15 31//15
f 31//15 32//15 30//15
s 16
f 32//16 31//16 33//16
f 33//16 34//16 32//16
s 17
f 34//17 33//17 35//17
f 35//17 36//17 34//17
s 18
f 36//18 35//18 37//18
f 37//18 38//18 36//18
s 19
f 38//19 37//19 39//19
f 39//19 46//19 38//19
s 20
f 40//20 41//20 42//20
s 21
f 43//20 44//20 45//20
o ShapeIndexedFaceSet.004_ShapeIndexedFaceSet_Shape.004
v 0.000000 0.000000 0.000000
v -0.023000 0.000000 0.000000
v -0.021874 -0.007107 0.000000
v -0.018607 -0.013519 0.000000
v -0.013519 -0.018607 0.000000
v -0.007107 -0.021874 0.000000
v 0.000000 -0.023000 0.000000
v 0.007107 -0.021874 0.000000
v 0.013519 -0.018607 0.000000
v 0.018607 -0.013519 0.000000
v 0.021874 -0.007107 0.000000
v 0.023000 0.000000 0.000000
v 0.021874 0.007107 -0.000000
v 0.018607 0.013519 -0.000000
v 0.013519 0.018607 -0.000000
v 0.007107 0.021874 -0.000000
v 0.000000 0.023000 -0.000000
v -0.007107 0.021874 -0.000000
v -0.013519 0.018607 -0.000000
v -0.018607 0.013519 -0.000000
v -0.021874 0.007107 -0.000000
vn -0.000000 0.000000 1.000000
g ShapeIndexedFaceSet.004_ShapeIndexedFaceSet_Shape.004_ShapeIndexedFaceSet.004_ShapeIndexedFaceSet_Shape.004_Shape.004
usemtl Shape.004
s 1
f 47//21 48//21 49//21
f 49//21 50//21 47//21
f 50//21 51//21 47//21
f 51//21 52//21 47//21
f 52//21 53//21 47//21
f 53//21 54//21 47//21
f 54//21 55//21 47//21
f 55//21 56//21 47//21
f 56//21 57//21 47//21
f 57//21 58//21 47//21
f 58//21 59//21 47//21
f 59//21 60//21 47//21
f 60//21 61//21 47//21
f 61//21 62//21 47//21
f 62//21 63//21 47//21
f 63//21 64//21 47//21
f 64//21 65//21 47//21
f 65//21 66//21 47//21
f 66//21 67//21 47//21
f 67//21 48//21 47//21
o ShapeIndexedFaceSet.001_ShapeIndexedFaceSet.002_Shape.001
v 0.025000 -0.000000 -0.008000
v 0.023000 -0.000000 -0.010000
v 0.021874 0.007107 -0.010000
v 0.023776 0.007725 -0.008000
v 0.018607 0.013519 -0.010000
v 0.020225 0.014695 -0.008000
v 0.013519 0.018607 -0.010000
v 0.014695 0.020225 -0.008000
v 0.007107 0.021874 -0.010000
v 0.007725 0.023776 -0.008000
v 0.000000 0.023000 -0.010000
v 0.000000 0.025000 -0.008000
v -0.007107 0.021874 -0.010000
v -0.007725 0.023776 -0.008000
v -0.013519 0.018607 -0.010000
v -0.014695 0.020225 -0.008000
v -0.018607 0.013519 -0.010000
v -0.020225 0.014695 -0.008000
v -0.021874 0.007107 -0.010000
v -0.023776 0.007725 -0.008000
v -0.023000 -0.000000 -0.010000
v -0.025000 -0.000000 -0.008000
v -0.021874 -0.007107 -0.010000
v -0.023776 -0.007725 -0.008000
v -0.018607 -0.013519 -0.010000
v -0.020225 -0.014695 -0.008000
v -0.013519 -0.018607 -0.010000
v -0.014695 -0.020225 -0.008000
v -0.007107 -0.021874 -0.010000
v -0.007725 -0.023776 -0.008000
v 0.000000 -0.023000 -0.010000
v 0.000000 -0.025000 -0.008000
v 0.007107 -0.021874 -0.010000
v 0.007725 -0.023776 -0.008000
v 0.013519 -0.018607 -0.010000
v 0.014695 -0.020225 -0.008000
v 0.018607 -0.013519 -0.010000
v 0.020225 -0.014695 -0.008000
v 0.021874 -0.007107 -0.010000
v 0.023776 -0.007725 -0.008000
v 0.021874 -0.007107 -0.010000
v 0.023000 -0.000000 -0.010000
v 0.023000 -0.000000 -0.010000
v 0.025000 -0.000000 -0.008000
v 0.023776 -0.007725 -0.008000
v 0.023776 -0.007725 -0.008000
vn 0.702700 0.111300 -0.702700
vn 0.633900 0.323000 -0.702700
vn 0.503100 0.503100 -0.702800
vn 0.323000 0.633900 -0.702700
vn 0.323000 0.634000 -0.702700
vn 0.111300 0.702700 -0.702700
vn -0.111300 0.702700 -0.702700
vn -0.323000 0.633900 -0.702700
vn -0.503100 0.503100 -0.702800
vn -0.633900 0.323000 -0.702700
vn -0.634000 0.323000 -0.702700
vn -0.702700 0.111300 -0.702700
vn -0.702700 -0.111300 -0.702700
vn -0.633900 -0.323000 -0.702700
vn -0.503100 -0.503100 -0.702800
vn -0.323000 -0.633900 -0.702700
vn -0.323000 -0.634000 -0.702700
vn -0.111300 -0.702700 -0.702700
vn 0.111300 -0.702700 -0.702700
vn 0.323000 -0.633900 -0.702700
vn 0.503100 -0.503100 -0.702800
vn 0.633900 -0.323000 -0.702700
vn 0.634000 -0.323000 -0.702700
vn 0.702700 -0.111300 -0.702700
g ShapeIndexedFaceSet.001_ShapeIndexedFaceSet.002_Shape.001_ShapeIndexedFaceSet.001_ShapeIndexedFaceSet.002_Shape.001_Shape.001
usemtl Shape.001
s 1
f 68//22 69//22 70//22
f 70//22 71//22 68//22
s 2
f 71//23 70//23 72//23
f 72//23 73//23 71//23
s 3
f 73//24 72//24 74//24
f 74//24 75//24 73//24
s 4
f 75//25 74//25 76//25
f 76//25 77//26 75//25
s 5
f 77//27 76//27 78//27
f 78//27 79//27 77//27
s 6
f 79//28 78//28 80//28
f 80//28 81//28 79//28
s 7
f 81//29 80//29 82//29
f 82//29 83//29 81//29
s 8
f 83//30 82//30 84//30
f 84//30 85//30 83//30
s 9
f 85//31 84//31 86//31
f 86//31 87//32 85//31
s 10
f 87//33 86//33 88//33
f 88//33 89//33 87//33
s 11
f 89//34 88//34 90//34
f 90//34 91//34 89//34
s 12
f 91//35 90//35 92//35
f 92//35 93//35 91//35
s 13
f 93//36 92//36 94//36
f 94//36 95//36 93//36
s 14
f 95//37 94//37 96//37
f 96//37 97//38 95//37
s 15
f 97//39 96//39 98//39
f 98//39 99//39 97//39
s 16
f 99//40 98//40 100//40
f 100//40 101//40 99//40
s 17
f 101//41 100//41 102//41
f 102//41 103//41 101//41
s 18
f 103//42 102//42 104//42
f 104//42 105//42 103//42
s 19
f 105//43 104//43 106//43
f 106//43 113//44 105//43
s 20
f 107//45 108//45 109//45
s 21
f 110//45 111//45 112//45
o ShapeIndexedFaceSet.003_ShapeIndexedFaceSet.004_Shape.003
v -0.025000 -0.000000 -0.002000
v -0.023000 0.000000 0.000000
v -0.021874 0.007107 -0.000000
v -0.023776 0.007725 -0.002000
v -0.018607 0.013519 -0.000000
v -0.020225 0.014695 -0.002000
v -0.013519 0.018607 -0.000000
v -0.014695 0.020225 -0.002000
v -0.007107 0.021874 -0.000000
v -0.007725 0.023776 -0.002000
v 0.000000 0.023000 -0.000000
v 0.000000 0.025000 -0.002000
v 0.007107 0.021874 -0.000000
v 0.007725 0.023776 -0.002000
v 0.013519 0.018607 -0.000000
v 0.014695 0.020225 -0.002000
v 0.018607 0.013519 -0.000000
v 0.020225 0.014695 -0.002000
v 0.021874 0.007107 -0.000000
v 0.023776 0.007725 -0.002000
v 0.023000 0.000000 0.000000
v 0.025000 -0.000000 -0.002000
v 0.021874 -0.007107 0.000000
v 0.023776 -0.007725 -0.002000
v 0.018607 -0.013519 0.000000
v 0.020225 -0.014695 -0.002000
v 0.013519 -0.018607 0.000000
v 0.014695 -0.020225 -0.002000
v 0.007107 -0.021874 0.000000
v 0.007725 -0.023776 -0.002000
v 0.000000 -0.023000 0.000000
v 0.000000 -0.025000 -0.002000
v -0.007107 -0.021874 0.000000
v -0.007725 -0.023776 -0.002000
v -0.013519 -0.018607 0.000000
v -0.014695 -0.020225 -0.002000
v -0.018607 -0.013519 0.000000
v -0.020225 -0.014695 -0.002000
v -0.021874 -0.007107 0.000000
v -0.023776 -0.007725 -0.002000
v -0.021874 -0.007107 0.000000
v -0.023000 0.000000 0.000000
v -0.023000 0.000000 0.000000
v -0.025000 -0.000000 -0.002000
v -0.023776 -0.007725 -0.002000
v -0.023776 -0.007725 -0.002000
vn -0.702700 0.111300 0.702700
vn -0.633900 0.323000 0.702700
vn -0.503100 0.503100 0.702800
vn -0.323000 0.633900 0.702700
vn -0.323000 0.634000 0.702700
vn -0.111300 0.702700 0.702700
vn 0.111300 0.702700 0.702700
vn 0.323000 0.633900 0.702700
vn 0.503100 0.503100 0.702800
vn 0.633900 0.323000 0.702700
vn 0.634000 0.323000 0.702700
vn 0.702700 0.111300 0.702700
vn 0.702700 -0.111300 0.702700
vn 0.633900 -0.323000 0.702700
vn 0.503100 -0.503100 0.702800
vn 0.323000 -0.633900 0.702700
vn 0.323000 -0.634000 0.702700
vn 0.111300 -0.702700 0.702700
vn -0.111300 -0.702700 0.702700
vn -0.323000 -0.633900 0.702700
vn -0.503100 -0.503100 0.702800
vn -0.633900 -0.323000 0.702700
vn -0.634000 -0.323000 0.702700
vn -0.702700 -0.111300 0.702700
g ShapeIndexedFaceSet.003_ShapeIndexedFaceSet.004_Shape.003_ShapeIndexedFaceSet.003_ShapeIndexedFaceSet.004_Shape.003_Shape.003
usemtl Shape.003
s 1
f 114//46 115//46 116//46
f 116//46 117//46 114//46
s 2
f 117//47 116//47 118//47
f 118//47 119//47 117//47
s 3
f 119//48 118//48 120//48
f 120//48 121//48 119//48
s 4
f 121//49 120//49 122//49
f 122//49 123//50 121//49
s 5
f 123//51 122//51 124//51
f 124//51 125//51 123//51
s 6
f 125//52 124//52 126//52
f 126//52 127//52 125//52
s 7
f 127//53 126//53 128//53
f 128//53 129//53 127//53
s 8
f 129//54 128//54 130//54
f 130//54 131//54 129//54
s 9
f 131//55 130//55 132//55
f 132//55 133//56 131//55
s 10
f 133//57 132//57 134//57
f 134//57 135//57 133//57
s 11
f 135//58 134//58 136//58
f 136//58 137//58 135//58
s 12
f 137//59 136//59 138//59
f 138//59 139//59 137//59
s 13
f 139//60 138//60 140//60
f 140//60 141//60 139//60
s 14
f 141//61 140//61 142//61
f 142//61 143//62 141//61
s 15
f 143//63 142//63 144//63
f 144//63 145//63 143//63
s 16
f 145//64 144//64 146//64
f 146//64 147//64 145//64
s 17
f 147//65 146//65 148//65
f 148//65 149//65 147//65
s 18
f 149//66 148//66 150//66
f 150//66 151//66 149//66
s 19
f 151//67 150//67 152//67
f 152//67 159//68 151//67
s 20
f 153//69 154//69 155//69
s 21
f 156//69 157//69 158//69
o ShapeIndexedFaceSet_ShapeIndexedFaceSet.001_Shape
v 0.000000 -0.000000 -0.010000
v -0.023000 -0.000000 -0.010000
v -0.021874 0.007107 -0.010000
v -0.018607 0.013519 -0.010000
v -0.013519 0.018607 -0.010000
v -0.007107 0.021874 -0.010000
v 0.000000 0.023000 -0.010000
v 0.007107 0.021874 -0.010000
v 0.013519 0.018607 -0.010000
v 0.018607 0.013519 -0.010000
v 0.021874 0.007107 -0.010000
v 0.023000 -0.000000 -0.010000
v 0.021874 -0.007107 -0.010000
v 0.018607 -0.013519 -0.010000
v 0.013519 -0.018607 -0.010000
v 0.007107 -0.021874 -0.010000
v 0.000000 -0.023000 -0.010000
v -0.007107 -0.021874 -0.010000
v -0.013519 -0.018607 -0.010000
v -0.018607 -0.013519 -0.010000
v -0.021874 -0.007107 -0.010000
vn 0.000000 -0.000000 -1.000000
g ShapeIndexedFaceSet_ShapeIndexedFaceSet.001_Shape_ShapeIndexedFaceSet_ShapeIndexedFaceSet.001_Shape_Shape
usemtl Shape
s 1
f 160//70 161//70 162//70
f 162//70 163//70 160//70
f 163//70 164//70 160//70
f 164//70 165//70 160//70
f 165//70 166//70 160//70
f 166//70 167//70 160//70
f 167//70 168//70 160//70
f 168//70 169//70 160//70
f 169//70 170//70 160//70
f 170//70 171//70 160//70
f 171//70 172//70 160//70
f 172//70 173//70 160//70
f 173//70 174//70 160//70
f 174//70 175//70 160//70
f 175//70 176//70 160//70
f 176//70 177//70 160//70
f 177//70 178//70 160//70
f 178//70 179//70 160//70
f 179//70 180//70 160//70
f 180//70 161//70 160//70
